HIERARCHY
ROOT Hips
{
	OFFSET 0.000000 0.000000 0.000000
	CHANNELS 6 Xposition Yposition Zposition Zrotation Yrotation Xrotation
	JOINT LHipJoint
	{
		OFFSET 0.000000 0.000000 0.000000
		CHANNELS 3 Zrotation Yrotation Xrotation
		JOINT LeftUpLeg
		{
			OFFSET 1.363060 -1.794630 0.839290
			CHANNELS 3 Zrotation Yrotation Xrotation
			JOINT LeftLeg
			{
				OFFSET 2.448110 -6.726130 0.000000
				CHANNELS 3 Zrotation Yrotation Xrotation
				JOINT LeftFoot
				{
					OFFSET 2.562200 -7.039590 0.000000
					CHANNELS 3 Zrotation Yrotation Xrotation
					JOINT LeftToeBase
					{
						OFFSET 0.157640 -0.433110 2.322550
						CHANNELS 3 Zrotation Yrotation Xrotation
						End Site
						{
							OFFSET 0.000000 0.000000 0.000000
						}
					}
				}
			}
		}
	}
	JOINT RHipJoint
	{
		OFFSET 0.000000 0.000000 0.000000
		CHANNELS 3 Zrotation Yrotation Xrotation
		JOINT RightUpLeg
		{
			OFFSET -1.305520 -1.794630 0.839290
			CHANNELS 3 Zrotation Yrotation Xrotation
			JOINT RightLeg
			{
				OFFSET -2.542530 -6.985550 0.000000
				CHANNELS 3 Zrotation Yrotation Xrotation
				JOINT RightFoot
				{
					OFFSET -2.568260 -7.056230 0.000000
					CHANNELS 3 Zrotation Yrotation Xrotation
					JOINT RightToeBase
					{
						OFFSET -0.164730 -0.452590 2.363150
						CHANNELS 3 Zrotation Yrotation Xrotation
						End Site
						{
							OFFSET 0.000000 0.000000 0.000000
						}
					}
				}
			}
		}
	}
	JOINT LowerBack
	{
		OFFSET 0.000000 0.000000 0.000000
		CHANNELS 3 Zrotation Yrotation Xrotation
		JOINT Spine
		{
			OFFSET 0.028270 2.035590 -0.193380
			CHANNELS 3 Zrotation Yrotation Xrotation
			JOINT Spine1
			{
				OFFSET 0.056720 2.048850 -0.042750
				CHANNELS 3 Zrotation Yrotation Xrotation
				JOINT Neck
				{
					OFFSET 0.000000 0.000000 0.000000
					CHANNELS 3 Zrotation Yrotation Xrotation
					JOINT Neck1
					{
						OFFSET -0.054170 1.746240 0.172020
						CHANNELS 3 Zrotation Yrotation Xrotation
						JOINT Head
						{
							OFFSET 0.104070 1.761360 -0.123970
							CHANNELS 3 Zrotation Yrotation Xrotation
							End Site
							{
								OFFSET 0.000000 0.000000 0.000000
							}
						}
					}
				}
				JOINT LeftShoulder
				{
					OFFSET 0.000000 0.000000 0.000000
					CHANNELS 3 Zrotation Yrotation Xrotation
					JOINT LeftArm
					{
						OFFSET 3.362410 1.200890 -0.311210
						CHANNELS 3 Zrotation Yrotation Xrotation
						JOINT LeftForeArm
						{
							OFFSET 4.983000 -0.000000 -0.000000
							CHANNELS 3 Zrotation Yrotation Xrotation
							JOINT LeftHand
							{
								OFFSET 3.483560 -0.000000 -0.000000
								CHANNELS 3 Zrotation Yrotation Xrotation
								JOINT LeftFingerBase
								{
									OFFSET 0.000000 0.000000 0.000000
									CHANNELS 3 Zrotation Yrotation Xrotation
									JOINT LeftHandIndex1
									{
										OFFSET 0.715260 -0.000000 -0.000000
										CHANNELS 3 Zrotation Yrotation Xrotation
										End Site
										{
											OFFSET 0.000000 0.000000 0.000000
										}
									}
								}
								JOINT LThumb
								{
									OFFSET 0.000000 0.000000 0.000000
									CHANNELS 3 Zrotation Yrotation Xrotation
									End Site
									{
										OFFSET 0.000000 0.000000 0.000000
									}
								}
							}
						}
					}
				}
				JOINT RightShoulder
				{
					OFFSET 0.000000 0.000000 0.000000
					CHANNELS 3 Zrotation Yrotation Xrotation
					JOINT RightArm
					{
						OFFSET -3.136600 1.374050 -0.404650
						CHANNELS 3 Zrotation Yrotation Xrotation
						JOINT RightForeArm
						{
							OFFSET -5.241900 -0.000000 -0.000000
							CHANNELS 3 Zrotation Yrotation Xrotation
							JOINT RightHand
							{
								OFFSET -3.444170 -0.000000 -0.000000
								CHANNELS 3 Zrotation Yrotation Xrotation
								JOINT RightFingerBase
								{
									OFFSET 0.000000 0.000000 0.000000
									CHANNELS 3 Zrotation Yrotation Xrotation
									JOINT RightHandIndex1
									{
										OFFSET -0.622530 -0.000000 -0.000000
										CHANNELS 3 Zrotation Yrotation Xrotation
										End Site
										{
											OFFSET 0.000000 0.000000 0.000000
										}
									}
								}
								JOINT RThumb
								{
									OFFSET 0.000000 0.000000 0.000000
									CHANNELS 3 Zrotation Yrotation Xrotation
									End Site
									{
										OFFSET 0.000000 0.000000 0.000000
									}
								}
							}
						}
					}
				}
			}
		}
	}
}
MOTION
Frames: 11
Frame Time: 0.008333
-0.101554 -0.390654 7.817399 3.256532 2.920147 4.871012 -2.315612 1.182062 3.794762 -5.789376 -1.113507 22.401260 0.286023 -11.622598 -7.441935 1.375795 -19.209435 12.044825 0.718802 -0.347718 -4.831024 -3.541801 -0.773143 -5.488400 -24.427193 0.713399 -26.498188 -0.752291 0.760335 5.190197 3.553844 1.215793 3.965376 -0.688331 -0.349509 -8.793633 -12.963899 -5.107274 -3.803851 0.063983 -5.153396 -3.682903 5.203456 -3.811104 -1.418392 1.249943 -0.738048 -2.256086 1.474318 2.792653 -1.657514 -1.332386 0.395765 3.543329 -1.032116 0.255781 -0.268334 -10.069191 -14.336612 21.441261 12.855594 -13.593346 -3.255265 0.156212 0.808704 -15.222186 6.224197 -8.974092 0.805603 -0.583213 0.000000 0.000000 -0.896855 -6.128770 9.784895 -2.682681 -2.403456 -0.557441 9.331717 -23.201965 -34.645172 8.782722 -13.535780 4.401859 -1.688471 -0.004165 12.269670 -25.034904 -2.339272 -22.828955 0.798188 0.000000 0.000000 -27.884193 -7.181967 12.706109
-0.118463 -0.385261 7.857753 3.247392 3.031763 5.004971 -2.321919 1.202108 3.806638 -5.765666 -1.110160 22.959190 0.249674 -11.788221 -7.785355 1.419361 -19.176298 12.076357 0.727203 -0.273344 -5.119448 -3.551239 -0.795419 -5.507483 -24.714634 0.715854 -26.303864 -0.626232 0.959292 4.813029 3.568297 0.803752 3.952275 -0.685243 -0.303157 -9.068087 -12.950383 -5.144998 -3.910887 0.086044 -5.188018 -3.742523 5.252224 -3.860018 -1.446682 1.241477 -0.767776 -2.348927 1.438453 2.800999 -1.626428 -1.366723 0.404684 3.538700 -0.985965 0.256295 -0.271381 -9.731014 -14.536460 21.542070 12.930467 -13.923845 -3.332958 0.169704 0.811742 -15.155618 6.125452 -8.948304 0.879407 -0.595803 0.000000 0.000000 -0.957192 -6.113148 9.517074 -2.655424 -2.403375 -0.563824 9.315303 -23.374325 -34.753349 8.594999 -13.430247 4.380824 -1.684992 0.003572 12.302372 -24.954967 -2.142890 -23.167814 0.821287 0.000000 0.000000 -27.858913 -7.187695 12.705773
-0.137465 -0.380618 7.907079 3.234174 3.137229 5.132833 -2.331848 1.220407 3.817184 -5.751424 -1.107944 23.516571 0.212665 -11.950369 -8.110028 1.465023 -19.142105 12.118576 0.736079 -0.185226 -5.398384 -3.557348 -0.814047 -5.511619 -24.986763 0.726869 -26.039507 -0.540547 1.111230 4.506692 3.568581 0.433719 4.003366 -0.695677 -0.278908 -9.418026 -12.938778 -5.179601 -4.034546 0.114352 -5.216523 -3.799577 5.293643 -3.909434 -1.467327 1.226403 -0.805442 -2.421055 1.398443 2.822953 -1.598939 -1.450377 0.395345 3.524926 -0.953784 0.247028 -0.271847 -9.451322 -14.774920 22.235096 13.112432 -14.221911 -3.390533 0.170413 0.796159 -15.125657 5.987556 -8.959471 0.898517 -0.620339 0.000000 0.000000 -1.212238 -6.245934 9.132805 -2.639809 -2.423013 -0.574863 9.241962 -23.573488 -34.898922 8.346346 -13.392760 4.318092 -1.686415 0.007035 12.302502 -25.163778 -2.065087 -23.700644 0.839032 0.000000 0.000000 -28.060146 -7.313477 12.516864
-0.161775 -0.385870 7.935319 3.216192 3.233090 5.252869 -2.347913 1.235277 3.823368 -5.752570 -1.116554 24.040075 0.167410 -12.132922 -8.485984 1.502847 -19.141342 12.120066 0.737108 -0.119870 -5.751758 -3.596388 -0.843655 -5.529512 -25.334082 0.657981 -25.926729 -0.508612 1.195595 4.071999 3.534379 0.070749 3.981379 -0.717409 -0.281337 -9.895483 -12.937994 -5.223707 -4.199214 0.133299 -5.261640 -3.885827 5.311987 -3.968787 -1.517807 1.184301 -0.862537 -2.527434 1.343185 2.813222 -1.638090 -1.580083 0.360063 3.445509 -1.012385 0.145930 -0.290573 -9.433300 -15.061861 23.109110 13.308124 -14.538383 -3.448845 0.165827 0.775074 -15.073741 5.846186 -8.951488 0.900967 -0.646697 0.000000 0.000000 -1.457887 -6.367892 8.785183 -2.617259 -2.439469 -0.584364 9.190830 -23.767736 -35.036903 8.094807 -13.373093 4.243214 -1.688808 0.008445 12.288629 -25.509256 -2.060483 -24.341642 0.853125 0.000000 0.000000 -28.461971 -7.544060 12.127086
-0.189986 -0.412039 7.924057 3.194579 3.305700 5.334396 -2.394143 1.235199 3.817435 -5.798213 -1.146211 24.491283 0.121736 -12.308892 -8.824931 1.539366 -19.161039 12.141182 0.739644 -0.039582 -6.090989 -3.619092 -0.862428 -5.545894 -25.568024 0.660730 -25.564617 -0.427190 1.330247 3.909148 3.518074 0.118445 4.366888 -0.715717 -0.202592 -10.422598 -12.902738 -5.235647 -4.290849 0.164998 -5.285018 -3.909004 5.366510 -4.015445 -1.499724 1.188072 -0.888678 -2.604293 1.309438 2.874952 -1.586141 -1.610597 0.375195 3.447918 -1.009973 0.079579 -0.297231 -9.221580 -15.361913 23.644991 13.400728 -15.026910 -3.508718 0.157500 0.727241 -15.135525 5.611035 -8.878723 0.920101 -0.670529 0.000000 0.000000 -1.585420 -6.389541 8.544077 -2.549154 -2.438543 -0.585465 9.280411 -23.909828 -35.079159 7.944541 -13.278925 4.254520 -1.678226 0.021174 12.385764 -25.219299 -1.756903 -24.408600 0.880255 0.000000 0.000000 -28.347057 -7.489700 12.085130
-0.209755 -0.453903 7.873566 3.173067 3.389725 5.426499 -2.430209 1.242618 3.821239 -5.834135 -1.161719 24.934526 0.089466 -12.476120 -9.127102 1.575796 -19.185057 12.189664 0.745825 0.027576 -6.524881 -3.651682 -0.882219 -5.587207 -25.770966 0.636106 -25.199425 -0.336598 1.426263 3.933425 3.504374 0.156331 4.718373 -0.729420 -0.124312 -10.880531 -12.859925 -5.250742 -4.410437 0.182121 -5.317661 -3.947765 5.411316 -4.068947 -1.491763 1.176727 -0.927843 -2.706593 1.276018 2.942537 -1.537269 -1.636201 0.371600 3.422558 -1.065355 -0.038810 -0.311718 -9.347807 -15.799288 23.552326 13.497864 -15.547246 -3.541615 0.175551 0.696033 -14.851175 5.500675 -8.806466 0.931077 -0.691742 0.000000 0.000000 -1.647955 -6.458079 8.274066 -2.461494 -2.435931 -0.586065 9.390473 -24.073311 -35.201714 7.770500 -13.223836 4.290723 -1.665286 0.033405 12.487864 -25.095236 -1.501006 -24.499435 0.905407 0.000000 0.000000 -28.479359 -7.573950 11.786569
-0.206241 -0.468802 7.974629 3.170477 3.504060 5.559807 -2.422515 1.271345 3.845976 -5.823309 -1.127923 25.443001 0.082379 -12.593950 -9.288007 1.630402 -19.132954 12.352242 0.766680 0.129358 -6.872576 -3.638694 -0.880450 -5.594420 -25.786961 0.644872 -24.789965 -0.242209 1.488604 4.150145 3.487996 0.146309 5.108512 -0.760058 -0.068319 -11.297706 -12.809460 -5.255935 -4.513795 0.207388 -5.337129 -4.004619 5.441583 -4.127516 -1.493549 1.161424 -0.970698 -2.816590 1.235804 2.988663 -1.536602 -1.663783 0.333188 3.420703 -1.114711 -0.100090 -0.315220 -8.957326 -16.025476 23.681711 13.858095 -16.106672 -3.553232 0.203053 0.651027 -14.476325 5.367297 -8.834164 0.901085 -0.721777 0.000000 0.000000 -1.900854 -6.577704 8.032374 -2.386632 -2.455911 -0.596664 9.353005 -24.306044 -35.438736 7.535992 -13.250977 4.242404 -1.661677 0.037800 12.531404 -25.521257 -1.474911 -24.943861 0.917136 0.000000 0.000000 -28.878101 -7.794374 11.337591
-0.204687 -0.479658 8.117628 3.171638 3.625923 5.702177 -2.403618 1.303961 3.872614 -5.811287 -1.089939 25.938946 0.071433 -12.725100 -9.481283 1.678944 -19.105764 12.481471 0.779898 0.210795 -7.294176 -3.655045 -0.887471 -5.618669 -25.858353 0.572055 -24.525908 -0.188429 1.479380 4.192173 3.403470 -0.070604 5.253173 -0.816432 -0.050441 -11.814719 -12.775249 -5.267212 -4.642030 0.224033 -5.370560 -4.081425 5.459225 -4.189557 -1.501434 1.150585 -1.008405 -2.906476 1.206950 3.055151 -1.514114 -1.680507 0.299847 3.428810 -1.153790 -0.135290 -0.313742 -8.394025 -16.151943 24.312311 14.354041 -16.532692 -3.521139 0.236385 0.617417 -13.948084 5.276406 -8.771090 0.898468 -0.744398 0.000000 0.000000 -1.958451 -6.503948 7.998903 -2.288524 -2.462746 -0.603165 9.370267 -24.522596 -35.647167 7.327712 -13.275822 4.200869 -1.656610 0.043167 12.593089 -25.890142 -1.439260 -25.313225 0.928689 0.000000 0.000000 -29.155365 -7.926344 11.065434
-0.207855 -0.493070 8.262054 3.166098 3.738774 5.807954 -2.408664 1.316706 3.882444 -5.864000 -1.087649 26.304024 0.054147 -12.882958 -9.736272 1.706112 -19.152954 12.588983 0.785625 0.278444 -7.815682 -3.695587 -0.899641 -5.647380 -25.897196 0.501332 -24.299227 -0.144937 1.426808 4.402977 3.356046 0.039791 5.654762 -0.850939 -0.007144 -12.437779 -12.686399 -5.257916 -4.690379 0.282092 -5.360960 -4.090882 5.516090 -4.235151 -1.454762 1.180336 -1.024336 -3.002912 1.176928 3.129997 -1.475641 -1.679688 0.264572 3.448958 -1.171432 -0.083647 -0.309607 -7.974812 -16.312834 24.769867 14.914952 -17.069723 -3.509771 0.249942 0.557141 -13.359445 5.182914 -8.594659 0.875758 -0.765152 0.000000 0.000000 -1.896692 -6.353979 8.049523 -2.197054 -2.463318 -0.606968 9.463248 -24.668144 -35.803528 7.192345 -13.268196 4.174387 -1.649552 0.051148 12.694960 -26.161179 -1.367751 -25.456223 0.942395 0.000000 0.000000 -29.223316 -7.944192 11.035886
-0.197688 -0.517213 8.399516 3.152700 3.860933 5.903845 -2.415890 1.323066 3.890083 -5.924386 -1.082573 26.636997 0.049322 -13.006474 -9.873094 1.739833 -19.170704 12.780365 0.803371 0.379916 -8.337746 -3.696891 -0.894975 -5.671147 -25.841103 0.483074 -24.008791 -0.075751 1.363585 4.775743 3.357945 0.212755 6.299945 -0.851326 0.073400 -12.707551 -12.531168 -5.244842 -4.717802 0.334954 -5.362333 -4.105432 5.568870 -4.276471 -1.379441 1.228440 -1.030399 -3.038521 1.183083 3.238802 -1.381050 -1.644418 0.234591 3.490415 -1.146040 -0.058360 -0.319674 -7.677831 -16.485693 24.706568 15.421270 -17.814070 -3.542223 0.263684 0.486889 -13.008178 4.888392 -8.699602 0.687151 -0.802463 0.000000 0.000000 -2.197603 -6.480247 7.842037 -2.144785 -2.487777 -0.616890 9.483220 -24.824318 -36.051620 7.085618 -13.251380 4.162379 -1.641141 0.063761 12.851525 -26.230844 -1.193561 -25.308283 0.961226 0.000000 0.000000 -29.092421 -7.853792 11.115114
-0.188092 -0.530478 8.704468 3.159068 4.042353 6.061938 -2.350782 1.362384 3.924580 -5.930857 -1.035007 26.951708 0.062636 -13.105273 -9.991806 1.778983 -19.164492 12.995652 0.817138 0.499146 -8.922303 -3.719520 -0.891707 -5.714767 -25.778738 0.465356 -23.727150 -0.002781 1.264949 5.112466 3.350827 0.129532 6.705876 -0.885138 0.006566 -13.210338 -12.432590 -5.250350 -4.791633 0.370071 -5.379954 -4.139931 5.602942 -4.327153 -1.335302 1.249474 -1.058410 -3.082839 1.174758 3.289343 -1.330191 -1.596267 0.192335 3.480720 -1.151737 -0.155002 -0.354431 -7.793020 -16.846386 23.936493 15.836202 -18.630623 -3.558435 0.292470 0.432491 -12.353314 4.611924 -8.525970 0.571423 -0.836314 0.000000 0.000000 -2.593656 -6.495285 7.799038 -2.073660 -2.509948 -0.628273 9.490131 -25.015682 -36.352757 7.014308 -13.249209 4.122512 -1.634858 0.074370 13.005908 -26.460239 -1.099108 -25.171469 0.973697 0.000000 0.000000 -29.051605 -7.787417 11.100176
